
<svg width="146" height="34" viewBox="0 0 146 34" fill="none" xmlns="http://www.w3.org/2000/svg">
  <!-- Blue background rectangle -->
  <path d="M22.2925 0H11.708C5.79115 0 0.999939 4.86404 0.999939 10.8687V22.8022C0.999939 28.8068 5.79115 33.6708 11.708 33.6708H22.2925C28.2093 33.6708 33.0006 28.8068 33.0006 22.8022V10.8687C33.0006 4.86404 28.2093 0 22.2925 0Z" fill="#2490EF"/>
  
  <!-- Centered white checkmark -->
  <path d="M17 11.8496L20.0578 14.9512L26.1750 8.7492" stroke="white" stroke-width="2.2" stroke-linecap="round" stroke-linejoin="round"/>
  
  <!-- Text part of the logo with better readability -->
  <path d="M47.9 8.8H44.2V25.8H55V22.6H47.9V8.8Z" fill="#36414C"/>
  <path d="M59.3 8.8H63V22.6H70.1V25.8H59.3V8.8Z" fill="#36414C"/>
  <path d="M78 8.8H74.3V25.8H78V8.8Z" fill="#36414C"/>
  <path d="M101.5 19.4C101.5 23.2 98.8 26.0 94.8 26.0C90.8 26.0 88.1 23.2 88.1 19.4V8.8H91.9V19.2C91.9 21.2 93.0 22.6 94.8 22.6C96.6 22.6 97.8 21.2 97.8 19.2V8.8H101.5V19.4Z" fill="#36414C"/>
  <path d="M83.1 15.2C83.1 18.2 80.9 20.5 78 20.5H74.3V25.8H70.5V8.8H78C80.9 8.8 83.1 11.1 83.1 14.0V15.2Z" fill="#36414C"/>
  <path d="M124 13.6C124 16.6 121.7 18.9 118.9 18.9H115.1V25.8H111.4V8.8H118.9C121.7 8.8 124 11.1 124 14.0V13.6Z" fill="#36414C"/>
  <path d="M128.7 25.8H132.4V8.8H128.7V25.8Z" fill="#36414C"/>
  <path d="M136.2 8.8H145.8V12.0H139.9V15.7H144.8V18.9H139.9V22.6H145.8V25.8H136.2V8.8Z" fill="#36414C"/>
  <path d="M111.4 15.2C111.4 18.2 109.2 20.5 106.3 20.5H102.6V25.8H98.8V8.8H106.3C109.2 8.8 111.4 11.1 111.4 14.0V15.2Z" fill="#36414C"/>
  <path d="M118.9 15.7H115.1V12.0H118.9C119.8 12.0 120.3 12.8 120.3 13.8C120.3 14.8 119.8 15.7 118.9 15.7Z" fill="#36414C"/>
  <path d="M106.3 15.7H102.6V12.0H106.3C107.2 12.0 107.7 12.8 107.7 13.8C107.7 14.8 107.2 15.7 106.3 15.7Z" fill="#36414C"/>
  <path d="M78 15.7H74.3V12.0H78C78.9 12.0 79.4 12.8 79.4 13.8C79.4 14.8 78.9 15.7 78 15.7Z" fill="#36414C"/>
</svg>
